<?xml version="1.0" encoding="UTF-8"?>
<svg id="_图层_2" data-name="图层 2" xmlns="http://www.w3.org/2000/svg" viewBox="0 0 680.8 233.5">
  <defs>
    <style>
      .cls-1 {
        fill: #232323;
      }
    </style>
  </defs>
  <g id="syn230">
    <g id="syn230-2" data-name="syn230">
      <g>
        <path class="cls-1" d="M0,229.1v-13.6c27-15.9,51.5-30.4,73.4-43.7s40.6-25.8,56.1-37.4c15.4-11.6,27.3-22.7,35.5-33.2s12.1-21,11.7-31.4c-.3-7.8-2.4-14.8-6.2-21.2s-9.3-11.8-16.5-16.4c-7.2-4.5-16.1-8-26.6-10.6s-22.7-3.8-36.4-3.8c-8.6,0-16.7,.5-24.5,1.5s-15.2,2.5-22.5,4.5c-7.2,2-14.3,4.6-21.2,7.6-6.8,3.1-13.6,6.7-20.3,10.8V19.8c7.2-3.1,14.2-5.8,21-8.3,6.8-2.4,13.7-4.5,20.7-6.3s14.2-3.1,21.8-3.9c7.4-.9,15.5-1.3,24-1.3,15.3,0,29.5,1.6,42.6,4.8,13.1,3.2,24.3,7.8,33.8,13.8s16.9,13.5,22.3,22.4c5.4,8.8,8.1,19,8.1,30.5,0,10.4-3.4,20.8-10.2,31.1-6.8,10.4-16.7,21.1-29.7,32.3-13,11.1-29,22.9-48,35.3-19,12.4-40.7,25.8-65.1,40.4H201.3v18.7H0v-.2Z"/>
        <path class="cls-1" d="M356.4,109.1c12.3,1.6,23,4.2,32.2,7.7s16.7,7.6,22.7,12.4,10.5,10.2,13.4,16.3,4.4,12.5,4.4,19.2c0,11.8-2.8,22-8.5,30.7s-13.4,15.8-23.2,21.5c-9.8,5.6-21.2,9.8-34.3,12.5s-27,4.1-41.7,4.1c-10.5,0-20-.4-28.5-1.2s-16.2-2-23.3-3.5c-7.1-1.5-13.7-3.4-19.9-5.5s-12.2-4.4-18-7v-23.8c13,8.1,26.5,13.9,40.3,17.6,13.9,3.7,28.7,5.5,44.5,5.5s29.7-1.2,41.3-3.7c11.6-2.5,21.2-5.9,28.8-10.3,7.5-4.4,13.2-9.8,16.9-16s5.5-13.1,5.5-20.6c0-16.3-9.4-28.1-28.2-35.5-18.8-7.4-47.6-11.2-86.4-11.5v-17.7c35.5,0,62.2-3.2,80.2-9.8s26.9-16.9,26.9-31.2c0-13.3-7.2-23.6-21.5-31-14.4-7.3-35.5-11-63.3-11-8.1,0-15.7,.4-22.8,1.3-7,.9-13.8,2.2-20.3,3.9-6.5,1.8-12.8,3.9-18.9,6.4-6.2,2.5-12.4,5.5-18.8,8.8V14.4c7-2.4,13.8-4.5,20.5-6.3s13.4-3.3,20.2-4.5c6.8-1.2,13.7-2.1,20.8-2.7s14.6-.9,22.4-.9c8.8,0,17.4,.4,25.8,1.3,8.4,.9,16.4,2.3,23.9,4.2s14.4,4.4,20.7,7.4,11.8,6.7,16.4,11,8.2,9.3,10.7,15c2.6,5.7,3.8,12.1,3.8,19.3,0,5.8-1.3,11.4-4,16.9s-6.7,10.5-12.1,15.1-12.1,8.5-20.2,11.9c-8,3.2-17.5,5.6-28.4,7h0Z"/>
        <path class="cls-1" d="M680.8,116.8c0,12.6-1.5,24.2-4.5,34.8s-7.1,20.3-12.3,28.9-11.4,16.2-18.6,22.9-15,12.1-23.4,16.6-17.3,7.9-26.6,10.1c-9.3,2.3-18.8,3.4-28.4,3.4s-19.1-1.1-28.4-3.4c-9.3-2.3-18.2-5.7-26.7-10.1-8.5-4.5-16.3-10-23.5-16.6s-13.4-14.2-18.7-22.9c-5.3-8.6-9.4-18.3-12.4-28.9-3-10.6-4.5-22.2-4.5-34.8s1.5-24.2,4.5-34.8c3-10.7,7.1-20.3,12.4-28.9s11.5-16.2,18.7-22.9c7.2-6.6,15-12.1,23.5-16.6s17.3-7.9,26.7-10.2c9.3-2.3,18.8-3.4,28.4-3.4s19.1,1.1,28.4,3.4c9.3,2.3,18.2,5.7,26.6,10.2,8.4,4.5,16.2,10,23.4,16.6,7.2,6.6,13.4,14.2,18.6,22.9,5.2,8.6,9.3,18.3,12.3,28.9s4.5,22.2,4.5,34.8Zm-19.6,0c0-11.1-1.3-21.3-3.8-30.6s-6-17.6-10.5-24.9c-4.4-7.3-9.7-13.7-15.7-19.2s-12.5-10-19.5-13.5-14.2-6.2-21.8-8-15.2-2.7-22.9-2.7c-11.5,0-22.9,2-34.1,6s-21.4,10.1-30.4,18.3-16.2,18.5-21.8,30.9c-5.6,12.4-8.3,27-8.3,43.8s2.8,31.4,8.3,43.8c5.5,12.4,12.8,22.7,21.8,30.9s19.1,14.3,30.4,18.3,22.7,6,34.1,6c7.6,0,15.2-.9,22.9-2.7s14.9-4.5,21.9-8.1,13.5-8.1,19.6-13.6c6-5.5,11.3-11.9,15.7-19.2,4.4-7.4,7.9-15.6,10.4-24.8,2.5-9.4,3.7-19.6,3.7-30.7h0Z"/>
      </g>
    </g>
  </g>
</svg>