<?xml version="1.0" encoding="UTF-8"?>
<svg id="ough" data-name="ougho" xmlns="http://www.w3.org/2000/svg" viewBox="0 0 282.51 94.05">
  <defs>
    <style>
      .cls-1 {
        fill: #333;
      }
    </style>
  </defs>
  <g id="not">
    <path class="cls-1" d="M93.86,69.69c-2.73,0-4.49-.45-5.2-1.28-.77-.83-1.12-2.66-1.12-5.45v-18.93c0-4.04-.99-6.99-2.98-8.92-1.99-1.92-4.72-2.89-8.21-2.89-2.92,0-5.77,.87-8.56,2.57-2.08,1.32-4.3,3.27-6.51,5.84V.31c0-.13-.16-.22-.48-.29-.32-.06-.51,0-.61,.19-.64,3.4-2.21,5.81-4.65,7.31-2.44,1.48-5.55,2.31-9.43,2.44-1.67,.06-3.4,.1-5.13,.13-1.7,.03-3.66,.06-5.84,.06h-7.83c-3.62,0-7.12-.03-10.42-.06s-6.38-.1-9.17-.16c-.61,0-1.28-.06-2.08-.13-.8-.1-1.51-.29-2.15-.61-.61-.29-.93-.77-.93-1.41,0-.32-.19-.48-.61-.48s-.61,.16-.61,.48c0,1.03-.06,2.37-.13,3.95s-.19,3.27-.32,4.97-.29,3.34-.45,4.84c-.16,1.51-.29,2.63-.42,3.43,0,.13,.19,.19,.61,.19s.61-.06,.61-.19c.71-5.07,2.02-8.56,3.85-10.52s4.84-2.92,8.92-2.92c3.08,0,5.39,.06,6.93,.26,1.54,.19,2.6,.67,3.11,1.57,.51,.87,.77,2.41,.77,4.52V63.02c0,1.86-.26,3.3-.74,4.3-.48,.99-1.44,1.64-2.89,1.96s-3.56,.48-6.35,.48c-.13,0-.19,.19-.19,.61s.06,.61,.19,.61h0c1.76,0,3.69-.03,5.81-.1,2.12-.06,4.33-.1,6.67-.1,2.47,0,4.75,.03,6.86,.1s4.01,.1,5.71,.1c.13,0,.19-.19,.19-.61s-.06-.61-.19-.61c-2.85,0-5-.16-6.38-.48-1.41-.32-2.34-.99-2.76-1.96-.45-.99-.67-2.41-.67-4.3V18.02c0-2.08,.26-3.59,.74-4.49s1.51-1.48,3.02-1.7c1.51-.22,3.82-.35,6.86-.35h14.92c.77,0,1.15,.35,1.15,1.09V62.96c0,2.79-.42,4.62-1.22,5.45s-2.53,1.28-5.2,1.28c-.13,0-.19,.19-.19,.61s.06,.61,.19,.61c1.15,0,2.5-.03,3.98-.1,1.48-.06,2.98-.1,4.68-.1s3.27,.03,4.78,.1c1.48,.06,2.79,.1,3.91,.1,.19,0,.29-.19,.29-.61s-.1-.61-.29-.61c-2.76,0-4.49-.45-5.26-1.28s-1.15-2.66-1.15-5.45v-20.63c1.48-1.73,3.11-3.21,4.91-4.36,2.57-1.67,5.07-2.5,7.54-2.5,6.19,0,9.27,3.85,9.27,11.61v15.91c0,2.79-.42,4.62-1.22,5.45s-2.53,1.28-5.2,1.28c-.13,0-.19,.19-.19,.61s.06,.61,.19,.61h0c1.15,0,2.5-.03,3.98-.1,1.48-.06,2.98-.1,4.68-.1s3.27,.03,4.78,.1c1.48,.06,2.79,.1,3.91,.1,.19,0,.29-.19,.29-.61s-.16-.64-.35-.64h0Z"/>
    <path class="cls-1" d="M122.76,33.45c-1.32-.71-2.63-1.09-3.98-1.09-1.03,0-2.12,.29-3.21,.93-1.12,.61-2.41,1.7-3.95,3.3-1.03,1.06-2.25,2.44-3.66,4.14v-.58c0-2.53-.35-4.49-1.03-5.81s-1.25-2.02-1.7-2.02c-.19,0-.35,.03-.48,.1l-10.84,5.1c-.29,.13-.29,.35-.13,.67s.38,.45,.64,.38c1.15-.45,2.21-.8,3.11-1.09s1.67-.38,2.34-.38c1.32,0,2.21,.51,2.73,1.51s.8,2.6,.8,4.84v19.5c0,2.79-.38,4.62-1.15,5.45s-2.5,1.28-5.16,1.28c-.19,0-.29,.19-.29,.61s.1,.61,.29,.61c1.12,0,2.41-.03,3.95-.1,1.51-.06,3.08-.1,4.72-.1,2.28,0,4.46,.03,6.54,.1s3.91,.1,5.45,.1c.19,0,.29-.19,.29-.61s-.1-.61-.29-.61c-2.79,0-4.88-.16-6.29-.48-1.38-.32-2.34-.99-2.76-1.96-.45-.99-.67-2.41-.67-4.3v-20.82c1.15-1.41,2.12-2.5,2.89-3.3,1.12-1.19,2.05-1.99,2.73-2.34,.67-.35,1.32-.55,1.89-.55,1.12,0,1.99,.22,2.63,.61,.64,.42,1.25,.87,1.8,1.32s1.22,.67,2.02,.67c.93,0,1.6-.26,2.08-.77s.74-1.12,.74-1.76c-.13-.96-.74-1.83-2.05-2.57h0Z"/>
    <path class="cls-1" d="M203.24,64.05c.26-.19,.26-.45-.06-.74s-.55-.29-.74-.06c-1.44,1.48-2.76,2.63-3.98,3.43-1.25,.77-2.25,1.15-3.02,1.15-1.76,0-2.31-1.99-1.67-5.93l3.98-21.75c.32-1.67,.64-3.27,.96-4.84,.32-1.51,.48-2.37,.48-2.57s-.13-.35-.38-.42c-.26-.1-.8-.13-1.67-.13-1.57,0-2.41,.45-2.53,1.35h0c-1.35,7.41-3.08,13.73-5.2,18.96s-4.33,9.24-6.74,11.93c-2.41,2.76-4.68,4.11-6.8,4.11s-3.43-.93-4.11-2.76c-.64-1.86-.55-4.72,.29-8.63l3.11-15.49c.8-3.59,.96-6.06,.55-7.47-.42-1.38-1.38-2.08-2.89-2.08-1.64,0-3.3,.64-5.07,1.96s-3.69,3.18-5.84,5.65c-.29,.26-.29,.51,0,.77s.51,.26,.8,0c1.44-1.51,2.73-2.66,3.91-3.5s2.12-1.28,2.82-1.28c.83,0,1.44,.48,1.76,1.48s.29,2.47-.1,4.49l-3.5,17.35c-.96,4.55-.96,7.83-.06,9.85,.96,2.02,2.82,3.02,5.61,3.02h0c3.27,0,6.32-1.6,9.24-4.84,2.92-3.21,5.55-7.7,7.86-13.47,.58-1.41,1.09-2.85,1.6-4.36l-2.21,12.7c-.64,3.59-.8,6.06-.42,7.47,.35,1.38,1.28,2.08,2.76,2.08h0c1.67,0,3.43-.61,5.2-1.86,1.8-1.25,3.82-3.08,6.03-5.55h0Z"/>
    <path class="cls-1" d="M282.33,63.38c-.26-.26-.51-.26-.8,0-1.44,1.44-2.73,2.57-3.91,3.46-1.15,.87-2.15,1.32-2.92,1.32-.83,0-1.41-.48-1.7-1.48s-.26-2.47,.06-4.49l3.21-17.35c.8-4.62,.77-7.89-.1-9.91-.83-1.99-2.66-2.98-5.45-2.98-3.18,0-6.25,1.6-9.17,4.84s-5.55,7.7-7.86,13.47c-.55,1.32-1.06,2.76-1.54,4.17L261.89,1.02c.06-.13-.03-.32-.29-.61s-.51-.32-.8-.19l-12,5.84c-.26,.06-.29,.29-.13,.67s.38,.51,.64,.38c3.05-1.48,5.07-1.96,6.09-1.35,.99,.61,1.28,1.92,.8,3.98l-10.14,53.92c-.26,1.67-.58,3.3-.93,4.84s-.55,2.37-.55,2.57,.13,.35,.38,.45c.26,.1,.8,.13,1.67,.13h0c1.57,0,2.41-.45,2.53-1.35h0c1.35-7.41,3.08-13.73,5.2-18.96s4.33-9.24,6.74-11.93c2.37-2.76,4.68-4.11,6.8-4.11s3.43,.96,3.98,2.82c.61,1.89,.51,4.75-.19,8.56l-2.82,15.49c-.64,3.59-.8,6.06-.42,7.47,.35,1.38,1.32,2.08,2.89,2.08h0c1.67,0,3.4-.67,5.13-2.02,1.7-1.32,3.66-3.21,5.81-5.61,.29-.22,.29-.45,.03-.74h0Z"/>
    <path class="cls-1" d="M140.78,71.65c-3.72,0-6.96-.93-9.69-2.76-2.73-1.83-4.84-4.27-6.35-7.35-1.48-3.05-2.21-6.35-2.21-9.88,0-3.27,.61-6.13,1.8-8.53s2.79-4.36,4.78-5.9c1.99-1.54,4.14-2.69,6.48-3.46,2.34-.77,4.65-1.12,6.9-1.12,3.79,0,7.02,.93,9.75,2.82s4.78,4.33,6.25,7.28c1.44,2.95,2.18,6.09,2.18,9.37,0,4.04-.93,7.51-2.73,10.39-1.83,2.92-4.23,5.13-7.25,6.7-3.02,1.67-6.32,2.44-9.91,2.44h0Zm2.63-1.7c3.53,0,6.38-1.19,8.5-3.56,2.15-2.37,3.21-6.29,3.21-11.77,0-3.85-.67-7.28-1.99-10.33-1.32-3.02-3.18-5.42-5.55-7.19s-5.13-2.66-8.28-2.66c-3.59,0-6.42,1.25-8.4,3.75-2.02,2.5-3.02,6.06-3.02,10.75,0,3.72,.64,7.19,1.92,10.39s3.11,5.77,5.45,7.7c2.34,1.96,5.07,2.92,8.15,2.92h0Z"/>
    <path class="cls-1" d="M213.17,94.05c-2.49,0-4.8-.29-6.93-.87-2.13-.58-3.98-1.35-5.54-2.32-1.56-.97-2.73-2.04-3.5-3.23-.77-1.19-1.04-2.41-.81-3.68,.18-.99,.59-1.85,1.22-2.57,.63-.72,1.41-1.26,2.33-1.61,.92-.36,1.88-.54,2.88-.54,1.6,0,2.87,.34,3.79,1.03,.92,.69,1.26,1.7,1.01,3.02-.15,.83-.48,1.52-.97,2.07-.49,.55-1.06,1.01-1.71,1.37-.65,.36-1.29,.66-1.91,.91-.63,.25-1.17,.5-1.63,.74s-.72,.51-.77,.79c-.1,.55,.39,1.12,1.47,1.7,1.08,.58,2.54,1.05,4.38,1.41,1.84,.36,3.87,.54,6.08,.54,3.48,0,6.6-.46,9.34-1.37,2.74-.91,4.96-2.19,6.65-3.85,1.69-1.66,2.74-3.56,3.14-5.71,.38-2.04,.16-3.74-.67-5.09-.83-1.35-2.35-2.44-4.58-3.27-2.22-.83-5.26-1.43-9.12-1.82-3.86-.39-8.63-.58-14.33-.58l.23-1.24,11.99-8.69,.77,.75-8.3,6.29,.04,.66c4.59,0,8.61,.14,12.08,.41,3.46,.28,6.39,.73,8.79,1.37,2.4,.64,4.28,1.42,5.66,2.36,1.37,.94,2.3,2.1,2.79,3.48s.57,2.95,.24,4.72c-.51,2.76-1.85,5.09-4,7-2.15,1.9-4.94,3.35-8.36,4.35-3.42,.99-7.34,1.49-11.77,1.49Zm7.53-31.54c-2.77,0-5.27-.3-7.5-.91-2.24-.61-4.12-1.49-5.64-2.65s-2.63-2.58-3.31-4.26c-.68-1.68-.83-3.57-.44-5.67,.41-2.21,1.28-4.26,2.6-6.17,1.32-1.9,2.98-3.55,4.98-4.93,2-1.38,4.26-2.44,6.77-3.19,2.52-.75,5.19-1.12,8.01-1.12,2.65,0,5.07,.37,7.26,1.12,2.18,.74,4.05,1.79,5.59,3.15,1.54,1.35,2.64,2.98,3.28,4.88,.64,1.9,.75,3.99,.33,6.25-.36,1.93-1.12,3.71-2.28,5.34-1.16,1.63-2.69,3.06-4.58,4.3-1.89,1.24-4.11,2.19-6.67,2.86-2.56,.66-5.36,.99-8.4,.99Zm.3-1.16c2.82,0,5.35-.5,7.58-1.49,2.23-.99,4.09-2.39,5.59-4.18,1.5-1.79,2.46-3.88,2.91-6.25,.52-2.81,.42-5.31-.3-7.49-.73-2.18-2.01-3.92-3.84-5.22-1.83-1.3-4.16-1.95-6.98-1.95s-5.42,.65-7.79,1.95c-2.37,1.3-4.33,3.04-5.87,5.22-1.54,2.18-2.57,4.68-3.1,7.49-.44,2.37-.25,4.46,.58,6.25,.83,1.79,2.2,3.19,4.12,4.18,1.92,.99,4.28,1.49,7.1,1.49Zm11.93-25.75l-4.09-1.66c1.12-.05,2.26-.17,3.42-.33,1.16-.17,2.35-.37,3.56-.62s2.36-.51,3.46-.79c1.1-.28,2.17-.54,3.22-.79,1.04-.25,2.03-.48,2.95-.7l.57,3.64h-12.86l-.23,1.24Z"/>
  </g>
</svg>