<?xml version="1.0" encoding="utf-8"?>
<!-- Generator: Adobe Illustrator 27.0.0, SVG Export Plug-In . SVG Version: 6.00 Build 0)  -->
<svg version="1.1" id="through" xmlns="http://www.w3.org/2000/svg" xmlns:xlink="http://www.w3.org/1999/xlink" x="0px" y="0px"
	 viewBox="0 0 867.4 306.4" style="enable-background:new 0 0 867.4 306.4;" xml:space="preserve">
<style type="text/css">
	.st0{fill:#231815;}
</style>
<g id="_图层_2-2">
	<g>
		<path class="st0" d="M292.6,217.3c-8.5,0-14-1.4-16.2-4c-2.4-2.6-3.5-8.3-3.5-17v-59c0-12.6-3.1-21.8-9.3-27.8
			c-6.2-6-14.7-9-25.6-9c-9.1,0-18,2.7-26.7,8c-6.5,4.1-13.4,10.2-20.3,18.2V1c0-0.4-0.5-0.7-1.5-0.9c-1-0.2-1.6,0-1.9,0.6
			c-2,10.6-6.9,18.1-14.5,22.8c-7.6,4.6-17.3,7.2-29.4,7.6c-5.2,0.2-10.6,0.3-16,0.4c-5.3,0.1-11.4,0.2-18.2,0.2H85.1
			c-11.3,0-22.2-0.1-32.5-0.2C42.3,31.4,32.7,31.2,24,31c-1.9,0-4-0.2-6.5-0.4c-2.5-0.3-4.7-0.9-6.7-1.9c-1.9-0.9-2.9-2.4-2.9-4.4
			c0-1-0.6-1.5-1.9-1.5s-1.9,0.5-1.9,1.5c0,3.2-0.2,7.4-0.4,12.3S3.1,46.8,2.7,52.1S1.8,62.5,1.3,67.2C0.8,71.9,0.4,75.4,0,77.9
			c0,0.4,0.6,0.6,1.9,0.6s1.9-0.2,1.9-0.6c2.2-15.8,6.3-26.7,12-32.8s15.1-9.1,27.8-9.1c9.6,0,16.8,0.2,21.6,0.8s8.1,2.1,9.7,4.9
			c1.6,2.7,2.4,7.5,2.4,14.1v140.7c0,5.8-0.8,10.3-2.3,13.4c-1.5,3.1-4.5,5.1-9,6.1c-4.5,1-11.1,1.5-19.8,1.5
			c-0.4,0-0.6,0.6-0.6,1.9s0.2,1.9,0.6,1.9l0,0c5.5,0,11.5-0.1,18.1-0.3c6.6-0.2,13.5-0.3,20.8-0.3c7.7,0,14.8,0.1,21.4,0.3
			c6.6,0.2,12.5,0.3,17.8,0.3c0.4,0,0.6-0.6,0.6-1.9s-0.2-1.9-0.6-1.9c-8.9,0-15.6-0.5-19.9-1.5c-4.4-1-7.3-3.1-8.6-6.1
			c-1.4-3.1-2.1-7.5-2.1-13.4V56.2c0-6.5,0.8-11.2,2.3-14c1.5-2.8,4.7-4.6,9.4-5.3c4.7-0.7,11.9-1.1,21.4-1.1h46.5
			c2.4,0,3.6,1.1,3.6,3.4v157.1c0,8.7-1.3,14.4-3.8,17s-7.9,4-16.2,4c-0.4,0-0.6,0.6-0.6,1.9s0.2,1.9,0.6,1.9
			c3.6,0,7.8-0.1,12.4-0.3c4.6-0.2,9.3-0.3,14.6-0.3s10.2,0.1,14.9,0.3c4.6,0.2,8.7,0.3,12.2,0.3c0.6,0,0.9-0.6,0.9-1.9
			s-0.3-1.9-0.9-1.9c-8.6,0-14-1.4-16.4-4c-2.4-2.6-3.6-8.3-3.6-17V132c4.6-5.4,9.7-10,15.3-13.6c8-5.2,15.8-7.8,23.5-7.8
			c19.3,0,28.9,12,28.9,36.2v49.6c0,8.7-1.3,14.4-3.8,17s-7.9,4-16.2,4c-0.4,0-0.6,0.6-0.6,1.9s0.2,1.9,0.6,1.9l0,0
			c3.6,0,7.8-0.1,12.4-0.3c4.6-0.2,9.3-0.3,14.6-0.3s10.2,0.1,14.9,0.3c4.6,0.2,8.7,0.3,12.2,0.3c0.6,0,0.9-0.6,0.9-1.9
			S293.2,217.3,292.6,217.3L292.6,217.3z"/>
		<path class="st0" d="M385.7,104.3c-4.1-2.2-8.2-3.4-12.4-3.4c-3.2,0-6.6,0.9-10,2.9c-3.5,1.9-7.5,5.3-12.3,10.3
			c-3.2,3.3-7,7.6-11.4,12.9v-1.8c0-7.9-1.1-14-3.2-18.1s-3.9-6.3-5.3-6.3c-0.6,0-1.1,0.1-1.5,0.3L295.8,117
			c-0.9,0.4-0.9,1.1-0.4,2.1s1.2,1.4,2,1.2c3.6-1.4,6.9-2.5,9.7-3.4s5.2-1.2,7.3-1.2c4.1,0,6.9,1.6,8.5,4.7
			c1.6,3.1,2.5,8.1,2.5,15.1v60.8c0,8.7-1.2,14.4-3.6,17s-7.8,4-16.1,4c-0.6,0-0.9,0.6-0.9,1.9s0.3,1.9,0.9,1.9
			c3.5,0,7.5-0.1,12.3-0.3c4.7-0.2,9.6-0.3,14.7-0.3c7.1,0,13.9,0.1,20.4,0.3c6.5,0.2,12.2,0.3,17,0.3c0.6,0,0.9-0.6,0.9-1.9
			s-0.3-1.9-0.9-1.9c-8.7,0-15.2-0.5-19.6-1.5c-4.3-1-7.3-3.1-8.6-6.1c-1.4-3.1-2.1-7.5-2.1-13.4v-64.9c3.6-4.4,6.6-7.8,9-10.3
			c3.5-3.7,6.4-6.2,8.5-7.3c2.1-1.1,4.1-1.7,5.9-1.7c3.5,0,6.2,0.7,8.2,1.9c2,1.3,3.9,2.7,5.6,4.1c1.7,1.4,3.8,2.1,6.3,2.1
			c2.9,0,5-0.8,6.5-2.4c1.5-1.6,2.3-3.5,2.3-5.5C391.7,109.3,389.8,106.6,385.7,104.3L385.7,104.3z"/>
		<path class="st0" d="M638.6,200.7c0.8-0.6,0.8-1.4-0.2-2.3s-1.7-0.9-2.3-0.2c-4.5,4.6-8.6,8.2-12.4,10.7c-3.9,2.4-7,3.6-9.4,3.6
			c-5.5,0-7.2-6.2-5.2-18.5l12.4-67.8c1-5.2,2-10.2,3-15.1c1-4.7,1.5-7.4,1.5-8s-0.4-1.1-1.2-1.3c-0.8-0.3-2.5-0.4-5.2-0.4
			c-4.9,0-7.5,1.4-7.9,4.2l0,0c-4.2,23.1-9.6,42.8-16.2,59.1s-13.5,28.8-21,37.2c-7.5,8.6-14.6,12.8-21.2,12.8s-10.7-2.9-12.8-8.6
			c-2-5.8-1.7-14.7,0.9-26.9l9.7-48.3c2.5-11.2,3-18.9,1.7-23.3c-1.3-4.3-4.3-6.5-9-6.5c-5.1,0-10.3,2-15.8,6.1
			c-5.5,4.1-11.5,9.9-18.2,17.6c-0.9,0.8-0.9,1.6,0,2.4c0.9,0.8,1.6,0.8,2.5,0c4.5-4.7,8.5-8.3,12.2-10.9s6.6-4,8.8-4
			c2.6,0,4.5,1.5,5.5,4.6s0.9,7.7-0.3,14l-10.9,54.1c-3,14.2-3,24.4-0.2,30.7c3,6.3,8.8,9.4,17.5,9.4l0,0c10.2,0,19.7-5,28.8-15.1
			c9.1-10,17.3-24,24.5-42c1.8-4.4,3.4-8.9,5-13.6l-6.9,39.6c-2,11.2-2.5,18.9-1.3,23.3c1.1,4.3,4,6.5,8.6,6.5l0,0
			c5.2,0,10.7-1.9,16.2-5.8C625.4,214.1,631.7,208.4,638.6,200.7L638.6,200.7z"/>
		<path class="st0" d="M750.4,113.6c0.6-1.3,1.2-2.9,1.7-4.7s0.7-3.5,0.6-5s-0.7-2.3-1.7-2.3c-5.7,0-11.9,1.1-18.9,3.4
			c-3.5,1.2-7,2.4-10.3,4.1c-0.3-0.3-0.7-0.7-1.1-1c-4.7-4.1-11.1-6.1-19-6.1s-15.3,1.9-22.3,5.8c-7,3.8-12.9,9.1-17.9,15.8
			s-8.3,14.3-9.9,22.8c-1.9,8.1-1.9,15.6-0.2,22.3c1.7,6.8,5.1,12.3,10,16.4c2.1,1.8,4.5,3.2,7.2,4.2c-2.5,2.4-4.7,4.6-6.6,6.9
			c-3.3,3.8-5.5,8-6.5,12.4c-0.8,4.9,0.1,9.1,2.7,12.8c2,2.7,4.6,5.2,7.8,7.7c-9.8,5.7-18.7,11.3-26.6,17.1
			c-9.1,6.6-14.8,14.3-17,23.3c-1.4,6.3-0.6,12.3,2.5,17.9c3,5.7,8.1,10.3,15.2,13.8c7.1,3.5,16.1,5.3,27.1,5.3l0,0
			c11.2,0,21.4-2,30.7-5.9s16.9-9,22.8-15.3c5.9-6.3,9-12.9,9.4-19.7c0.6-5.9-0.6-10.9-3.5-15.2c-3-4.2-6.8-8-11.8-11.2
			s-10.2-6.3-15.8-9.1s-10.8-5.6-15.8-8.4c-5-2.7-8.9-5.8-11.8-9c-3-3.2-4.1-7-3.5-11.2c0.4-3.1,1.6-6,3.6-8.8
			c0.5-0.7,1-1.4,1.5-1.9c2.4,0.5,4.9,0.8,7.6,0.8l0,0c7.1,0,14-1.9,21-5.6c6.8-3.7,12.9-9,18.1-15.6c5.2-6.7,8.6-14.6,10.5-23.7
			c1.9-8.1,2-15.5,0.3-22.2c-1-4.2-2.7-7.9-5-11.2c2.1-0.3,4.2-0.5,6.3-0.7c6.6-0.4,12.2,0.5,16.8,2.7
			C749.2,115.4,749.8,114.9,750.4,113.6L750.4,113.6z M685.2,240.2c5.6,2.9,10.9,5.8,16,9s9.1,6.8,12.3,10.8s4.7,8.8,4.4,14.3
			c-0.4,6.9-3.7,12.6-10,17.2c-6.3,4.6-15.1,6.9-26.4,6.9c-9.9,0-18.4-1.6-25.5-4.7s-12.3-7.5-15.7-12.8s-4.5-11.3-3.5-17.8
			c1-5.7,3.4-10.4,7.1-14.3s8.2-7.4,13.4-10.5c4-2.4,7.9-4.8,11.8-7.2c0.2,0.1,0.3,0.2,0.5,0.3C674.4,234.3,679.6,237.3,685.2,240.2
			L685.2,240.2z M716.3,156c-1.9,9.3-5.4,16.6-10.8,21.9c-5.3,5.2-11.2,7.9-17.5,7.9l0,0c-6.3,0-11.3-2.5-15.2-7.6
			c-3.8-5.1-6.3-11.4-7.6-19c-1.3-7.6-1.1-15,0.3-22c1.6-8.7,5.2-15.9,10.7-21.6s11.2-8.6,17.9-8.6s11.8,2.7,15.5,8
			c3.6,5.3,6,11.8,7,19.3C717.7,141.9,717.5,149,716.3,156L716.3,156z"/>
		<path class="st0" d="M866.8,197.6c-0.8-0.8-1.6-0.8-2.5,0c-4.5,4.5-8.5,8-12.2,10.8c-3.6,2.7-6.7,4.1-9.1,4.1
			c-2.6,0-4.4-1.5-5.3-4.6s-0.8-7.7,0.2-14l10-54.1c2.5-14.4,2.4-24.6-0.3-30.9c-2.6-6.2-8.3-9.3-17-9.3c-9.9,0-19.5,5-28.6,15.1
			c-9.1,10.1-17.3,24-24.5,42c-1.7,4.1-3.3,8.6-4.8,13L803.1,3.2c0.2-0.4-0.1-1-0.9-1.9s-1.6-1-2.5-0.6l-37.4,18.2
			c-0.8,0.2-0.9,0.9-0.4,2.1s1.2,1.6,2,1.2c9.5-4.6,15.8-6.1,19-4.2c3.1,1.9,4,6,2.5,12.4l-31.6,168.1c-0.8,5.2-1.8,10.3-2.9,15.1
			s-1.7,7.4-1.7,8s0.4,1.1,1.2,1.4c0.8,0.3,2.5,0.4,5.2,0.4l0,0c4.9,0,7.5-1.4,7.9-4.2l0,0c4.2-23.1,9.6-42.8,16.2-59.1
			s13.5-28.8,21-37.2c7.4-8.6,14.6-12.8,21.2-12.8s10.7,3,12.4,8.8c1.9,5.9,1.6,14.8-0.6,26.7l-8.8,48.3c-2,11.2-2.5,18.9-1.3,23.3
			c1.1,4.3,4.1,6.5,9,6.5l0,0c5.2,0,10.6-2.1,16-6.3c5.3-4.1,11.4-10,18.1-17.5C867.6,199.2,867.6,198.5,866.8,197.6L866.8,197.6z"
			/>
		<path class="st0" d="M441.9,223.4c-11.6,0-21.7-2.9-30.2-8.6c-8.5-5.7-15.1-13.3-19.8-22.9c-4.6-9.5-6.9-19.8-6.9-30.8
			c0-10.2,1.9-19.1,5.6-26.6c3.7-7.5,8.7-13.6,14.9-18.4c6.2-4.8,12.9-8.4,20.2-10.8c7.3-2.4,14.5-3.5,21.5-3.5
			c11.8,0,21.9,2.9,30.4,8.8s14.9,13.5,19.5,22.7c4.5,9.2,6.8,19,6.8,29.2c0,12.6-2.9,23.4-8.5,32.4c-5.7,9.1-13.2,16-22.6,20.9
			C463.4,221,453.1,223.4,441.9,223.4L441.9,223.4z M450.1,218.1c11,0,19.9-3.7,26.5-11.1c6.7-7.4,10-19.6,10-36.7
			c0-12-2.1-22.7-6.2-32.2c-4.1-9.4-9.9-16.9-17.3-22.4c-7.4-5.5-16-8.3-25.8-8.3c-11.2,0-20,3.9-26.2,11.7
			c-6.3,7.8-9.4,18.9-9.4,33.5c0,11.6,2,22.4,6,32.4c4,10,9.7,18,17,24C432,215.1,440.5,218.1,450.1,218.1L450.1,218.1z"/>
	</g>
</g>
</svg>
